<svg xmlns="http://www.w3.org/2000/svg" width="150" height="150" viewBox="0 0 150 150" version="1.1"><path d="M 71 16.012 C 69.075 17.093, 57.531 22.848, 45.346 28.802 L 23.191 39.626 49.096 52.548 C 63.343 59.655, 75 65.787, 75 66.176 C 75 66.564, 74.515 67.182, 73.922 67.548 C 73.330 67.914, 69.218 72.778, 64.786 78.357 C 60.354 83.936, 56.274 88.672, 55.718 88.882 C 54.125 89.484, 3.986 63.624, 4.417 62.423 C 4.630 61.830, 7.999 56.815, 11.902 51.277 C 18.689 41.649, 20.929 37.154, 17.537 39.969 C 14.751 42.281, 2 61.134, 2 62.941 C 2 65.289, 3.663 66.607, 10.993 70.074 L 17 72.915 17.015 90.708 C 17.024 100.493, 17.382 109.052, 17.810 109.728 C 18.777 111.249, 73.398 138, 75.538 138 C 77.675 138, 132.223 111.249, 133.190 109.727 C 133.619 109.052, 133.976 100.534, 133.985 90.799 L 134 73.098 141.250 69.299 C 146.144 66.735, 148.587 64.850, 148.767 63.500 C 148.924 62.326, 146.121 57.370, 141.980 51.500 C 133.902 40.049, 132.473 38.425, 131.650 39.757 C 131.327 40.279, 134.199 45.265, 138.032 50.836 C 141.864 56.407, 145 61.619, 145 62.417 C 145 63.276, 139.592 66.599, 131.750 70.558 C 124.463 74.238, 113.508 79.892, 107.406 83.124 C 101.305 86.356, 95.831 89, 95.242 89 C 94.653 89, 90.049 83.734, 85.011 77.297 L 75.851 65.595 85.076 60.962 C 91.926 57.522, 93.846 56.155, 92.537 55.652 C 91.403 55.218, 90.952 54.290, 91.275 53.057 C 91.586 51.868, 90.906 50.321, 89.488 48.988 C 88.229 47.806, 86.148 44.624, 84.863 41.919 C 83.579 39.214, 82.198 37, 81.795 37 C 81.392 37, 81.316 36.340, 81.626 35.532 C 82.240 33.932, 76.249 13.986, 75.166 14.023 C 74.800 14.036, 72.925 14.931, 71 16.012 M 74.223 76.854 C 73.583 79.627, 72.182 83.832, 71.110 86.198 C 70.038 88.564, 68.873 91.502, 68.520 92.728 C 67.524 96.189, 57.575 98.501, 54.498 95.985 C 53.946 95.535, 51.111 94.226, 48.198 93.078 C 45.285 91.930, 40.468 89.193, 37.494 86.995 C 34.519 84.798, 31.811 83, 31.476 83 C 30.567 83, 23.676 77.726, 22.332 76.002 C 21.689 75.177, 20.931 74.736, 20.646 75.020 C 20.362 75.305, 20.038 82.912, 19.926 91.926 L 19.722 108.316 47.366 121.820 C 62.569 129.247, 75.321 135.012, 75.703 134.630 C 76.763 133.570, 77.309 76.829, 76.285 74.156 C 75.480 72.057, 75.266 72.338, 74.223 76.854 M 124.250 88.491 C 122.463 89.268, 121 89.614, 121 89.261 C 121 88.907, 120.393 89.447, 119.652 90.462 C 118.910 91.476, 117.842 92.020, 117.278 91.672 C 116.713 91.323, 115.132 92.042, 113.764 93.269 C 112.396 94.496, 110.427 96.069, 109.388 96.764 C 108.350 97.460, 108.963 97.335, 110.750 96.489 L 114 94.949 114.125 99.474 C 114.194 101.963, 114.362 104.450, 114.500 105 C 114.638 105.550, 114.838 107.013, 114.945 108.250 C 115.127 110.348, 115.192 110.368, 115.903 108.553 C 116.322 107.482, 116.473 103.833, 116.240 100.445 L 115.815 94.284 122.407 90.971 C 126.033 89.149, 129 87.510, 129 87.329 C 129 86.711, 127.502 87.077, 124.250 88.491 M 129 97.941 C 129 102.373, 128.966 106.326, 128.925 106.725 C 128.884 107.124, 129.272 107.591, 129.788 107.763 C 131.110 108.203, 131.366 91.344, 130.049 90.531 C 129.350 90.098, 129 92.570, 129 97.941 M 103.750 98.689 C 102.787 98.941, 102 99.579, 102 100.109 C 102 100.662, 102.954 100.574, 104.250 99.900 C 108 97.949, 107.862 97.615, 103.750 98.689 M 123.773 101.500 C 123.125 104.759, 123.552 105.906, 124.865 104.433 C 125.323 103.920, 125.398 102.375, 125.033 101 C 124.371 98.509, 124.367 98.511, 123.773 101.500 M 99.583 105.866 C 99.152 106.563, 99.070 107.403, 99.400 107.733 C 100.295 108.628, 101.271 107.312, 100.787 105.862 C 100.449 104.846, 100.213 104.846, 99.583 105.866" stroke="none" fill="#76300b" fill-rule="evenodd"/><path d="M 45.388 24.804 C 28.186 33.493, 18.437 38.953, 18.718 39.740 C 18.961 40.423, 15.930 45.563, 11.982 51.163 C 8.035 56.764, 4.630 61.830, 4.417 62.423 C 3.986 63.624, 54.125 89.484, 55.718 88.882 C 56.274 88.672, 60.354 83.936, 64.786 78.357 C 69.218 72.778, 73.330 67.914, 73.922 67.548 C 74.515 67.182, 75 66.564, 75 66.176 C 75 65.787, 63.334 59.650, 49.075 52.538 L 23.151 39.606 27.825 37.316 C 30.396 36.057, 42.090 30.296, 53.811 24.513 C 65.533 18.731, 75.282 14, 75.477 14 C 76.353 14, 82.128 34.224, 81.626 35.532 C 81.316 36.340, 81.392 37, 81.795 37 C 82.198 37, 83.579 39.214, 84.863 41.919 C 86.148 44.624, 88.229 47.806, 89.488 48.988 C 90.906 50.321, 91.586 51.868, 91.275 53.057 C 90.952 54.290, 91.403 55.218, 92.537 55.652 C 93.846 56.155, 91.926 57.522, 85.076 60.962 L 75.851 65.595 85.011 77.297 C 90.049 83.734, 94.653 89, 95.242 89 C 95.831 89, 101.305 86.356, 107.406 83.124 C 113.508 79.892, 124.463 74.238, 131.750 70.558 C 139.718 66.536, 145 63.282, 145 62.397 C 145 61.588, 141.986 56.573, 138.303 51.253 C 134.620 45.933, 131.660 40.866, 131.726 39.993 C 131.867 38.122, 78.398 10.966, 74.745 11.054 C 73.510 11.084, 60.299 17.271, 45.388 24.804 M 74.223 76.854 C 73.583 79.627, 72.182 83.832, 71.110 86.198 C 70.038 88.564, 68.873 91.502, 68.520 92.728 C 67.524 96.189, 57.575 98.501, 54.498 95.985 C 53.946 95.535, 51.111 94.226, 48.198 93.078 C 45.285 91.930, 40.468 89.193, 37.494 86.995 C 34.519 84.798, 31.811 83, 31.476 83 C 30.567 83, 23.676 77.726, 22.332 76.002 C 21.689 75.177, 20.931 74.736, 20.646 75.020 C 20.362 75.305, 20.038 82.912, 19.926 91.926 L 19.722 108.316 47.366 121.820 C 62.569 129.247, 75.321 135.012, 75.703 134.630 C 76.763 133.570, 77.309 76.829, 76.285 74.156 C 75.480 72.057, 75.266 72.338, 74.223 76.854 M 124.250 88.491 C 122.463 89.268, 121 89.614, 121 89.261 C 121 88.907, 120.393 89.447, 119.652 90.462 C 118.910 91.476, 117.842 92.020, 117.278 91.672 C 116.713 91.323, 115.132 92.042, 113.764 93.269 C 112.396 94.496, 110.427 96.069, 109.388 96.764 C 108.350 97.460, 108.963 97.335, 110.750 96.489 L 114 94.949 114.125 99.474 C 114.194 101.963, 114.362 104.450, 114.500 105 C 114.638 105.550, 114.838 107.013, 114.945 108.250 C 115.127 110.348, 115.192 110.368, 115.903 108.553 C 116.322 107.482, 116.473 103.833, 116.240 100.445 L 115.815 94.284 122.407 90.971 C 126.033 89.149, 129 87.510, 129 87.329 C 129 86.711, 127.502 87.077, 124.250 88.491 M 129 97.941 C 129 102.373, 128.966 106.326, 128.925 106.725 C 128.884 107.124, 129.272 107.591, 129.788 107.763 C 131.110 108.203, 131.366 91.344, 130.049 90.531 C 129.350 90.098, 129 92.570, 129 97.941 M 103.750 98.689 C 102.787 98.941, 102 99.579, 102 100.109 C 102 100.662, 102.954 100.574, 104.250 99.900 C 108 97.949, 107.862 97.615, 103.750 98.689 M 123.773 101.500 C 123.125 104.759, 123.552 105.906, 124.865 104.433 C 125.323 103.920, 125.398 102.375, 125.033 101 C 124.371 98.509, 124.367 98.511, 123.773 101.500 M 99.583 105.866 C 99.152 106.563, 99.070 107.403, 99.400 107.733 C 100.295 108.628, 101.271 107.312, 100.787 105.862 C 100.449 104.846, 100.213 104.846, 99.583 105.866" stroke="none" fill="#c29460" fill-rule="evenodd"/></svg>